HIERARCHY
ROOT Hips
{
	OFFSET 0.000000 0.000000 0.000000
	CHANNELS 6 Xposition Yposition Zposition Xrotation Yrotation Zrotation
	JOINT LeftUpLeg_virtual
	{
		OFFSET 0.000000 0.000000 0.000000
		CHANNELS 3 Xrotation Yrotation Zrotation
		JOINT LeftUpLeg
		{
			OFFSET 13.026900 -6.336304 -1.092800
			CHANNELS 3 Xrotation Yrotation Zrotation
			JOINT LeftLeg
			{
				OFFSET 0.524474 -46.096886 9.782700
				CHANNELS 3 Xrotation Yrotation Zrotation
				JOINT LeftFoot
				{
					OFFSET -0.524474 -53.427422 -12.948200
					CHANNELS 3 Xrotation Yrotation Zrotation
					JOINT LeftToeBase
					{
						OFFSET 0.192200 -14.009700 16.364100
						CHANNELS 3 Xrotation Yrotation Zrotation
						JOINT LeftToe_End
						{
							OFFSET -1.784700 -0.561700 9.474800
							CHANNELS 3 Xrotation Yrotation Zrotation
							End Site
							{
								OFFSET 0 0 0
							}
						}
					}
				}
			}
		}
	}
	JOINT RightUpLeg_virtual
	{
		OFFSET 0.000000 0.000000 0.000000
		CHANNELS 3 Xrotation Yrotation Zrotation
		JOINT RightUpLeg
		{
			OFFSET -12.883000 -6.336304 -1.092800
			CHANNELS 3 Xrotation Yrotation Zrotation
			JOINT RightLeg
			{
				OFFSET -0.524587 -46.096825 9.782800
				CHANNELS 3 Xrotation Yrotation Zrotation
				JOINT RightFoot
				{
					OFFSET 0.524587 -53.427383 -12.948300
					CHANNELS 3 Xrotation Yrotation Zrotation
					JOINT RightToeBase
					{
						OFFSET -0.192200 -14.009700 16.364100
						CHANNELS 3 Xrotation Yrotation Zrotation
						JOINT RightToe_End
						{
							OFFSET 1.784700 -0.561700 9.474800
							CHANNELS 3 Xrotation Yrotation Zrotation
							End Site
							{
								OFFSET 0 0 0
							}
						}
					}
				}
			}
		}
	}
	JOINT Spine_virtual
	{
		OFFSET 0.000000 0.000000 0.000000
		CHANNELS 3 Xrotation Yrotation Zrotation
		JOINT Spine
		{
			OFFSET 0.072000 7.257294 -0.789700
			CHANNELS 3 Xrotation Yrotation Zrotation
			JOINT Spine1
			{
				OFFSET 0.000000 12.508769 -0.658067
				CHANNELS 3 Xrotation Yrotation Zrotation
				JOINT Spine1_split
				{
					OFFSET 0.000000 12.508769 -0.658067
					CHANNELS 3 Xrotation Yrotation Zrotation
					JOINT Spine2
					{
						OFFSET 0.000000 12.508769 -0.658067
						CHANNELS 3 Xrotation Yrotation Zrotation
						JOINT Neck_virtual
						{
							OFFSET 0.000000 0.000000 0.000000
							CHANNELS 3 Xrotation Yrotation Zrotation
							JOINT Neck
							{
								OFFSET 0.000000 14.033295 7.520400
								CHANNELS 3 Xrotation Yrotation Zrotation
								JOINT Head
								{
									OFFSET 0.000000 8.198502 5.703100
									CHANNELS 3 Xrotation Yrotation Zrotation
									JOINT HeadTop_End
									{
										OFFSET 0.000000 17.760803 13.332701
										CHANNELS 3 Xrotation Yrotation Zrotation
										End Site
										{
											OFFSET 0 0 0
										}
									}
								}
							}
						}
						JOINT LeftShoulder_virtual
						{
							OFFSET 0.000000 0.000000 0.000000
							CHANNELS 3 Xrotation Yrotation Zrotation
							JOINT LeftShoulder
							{
								OFFSET 6.292450 5.785301 -0.669000
								CHANNELS 3 Xrotation Yrotation Zrotation
								JOINT LeftShoulder_split
								{
									OFFSET 6.292450 5.785301 -0.669000
									CHANNELS 3 Xrotation Yrotation Zrotation
									JOINT LeftArm
									{
										OFFSET 13.907140 -6.093903 1.965100
										CHANNELS 3 Xrotation Yrotation Zrotation
										JOINT LeftForeArm
										{
											OFFSET 34.140198 0.000000 0.000000
											CHANNELS 3 Xrotation Yrotation Zrotation
											JOINT LeftHand
											{
												OFFSET 40.960209 0.000000 0.000000
												CHANNELS 3 Xrotation Yrotation Zrotation
												End Site
												{
													OFFSET 0 0 0
												}
											}
										}
									}
								}
							}
						}
						JOINT RightShoulder_virtual
						{
							OFFSET 0.000000 0.000000 0.000000
							CHANNELS 3 Xrotation Yrotation Zrotation
							JOINT RightShoulder
							{
								OFFSET -6.292450 5.785301 -0.669000
								CHANNELS 3 Xrotation Yrotation Zrotation
								JOINT RightShoulder_split
								{
									OFFSET -6.292450 5.785301 -0.669000
									CHANNELS 3 Xrotation Yrotation Zrotation
									JOINT RightArm
									{
										OFFSET -13.907140 -6.093903 1.965100
										CHANNELS 3 Xrotation Yrotation Zrotation
										JOINT RightForeArm
										{
											OFFSET -34.140198 0.000000 0.000000
											CHANNELS 3 Xrotation Yrotation Zrotation
											JOINT RightHand
											{
												OFFSET -40.960209 0.000000 0.000000
												CHANNELS 3 Xrotation Yrotation Zrotation
												End Site
												{
													OFFSET 0 0 0
												}
											}
										}
									}
								}
							}
						}
					}
				}
			}
		}
	}
}
MOTION
Frames: 10
Frame Time: 0.03333333
2.874787 111.409576 7.295864 0.000000 0.000000 0.000000 -30.006199 -41.718741 -20.099234 -1.553713 12.039927 3.771393 31.424184 3.059357 -1.956905 -9.477709 5.371370 2.603840 -5.147215 0.286860 -0.134283 0.000000 0.000000 0.000000 -27.444311 -38.487628 -18.367108 14.270629 -10.896962 -3.459090 19.704025 7.558387 -5.103585 -12.636700 -12.995019 6.417532 -4.414827 -0.232460 0.016432 0.000000 0.000000 0.000000 -29.522728 -40.542791 -20.298492 10.883022 -4.535517 1.029273 3.242464 -1.346528 0.027769 0.614969 1.046573 0.126260 0.000000 0.000000 0.000000 3.500088 -2.204969 0.029318 1.829972 1.899850 -3.416129 -6.624220 -1.219122 4.071815 0.000000 0.000000 0.000000 3.553059 -2.505145 0.160809 0.983798 -15.315169 -10.934154 0.665126 -1.185447 -0.525663 -20.868243 0.089158 -38.873755 2.302289 -67.741905 2.122791 0.000000 0.000000 0.000000 2.732007 -2.453804 0.115164 -0.003008 11.389556 16.191247 1.923642 3.664163 -2.090443 -10.232846 -7.281158 62.017291 -0.264843 42.289512 1.193564 0.000000 0.000000 0.000000 
3.637214 111.389839 8.455406 0.000000 0.000000 0.000000 -30.982138 -43.981470 -21.788889 -0.185127 13.712286 4.093683 29.829055 3.192870 -3.402402 -10.359399 7.140326 5.817576 -5.153980 0.188933 0.099251 0.000000 0.000000 0.000000 -28.240974 -40.042172 -19.696263 13.258008 -10.953752 -4.062055 19.912445 7.669875 -5.731457 -11.128118 -12.723844 7.396904 -4.354383 -0.217023 -0.301909 0.000000 0.000000 0.000000 -30.551494 -42.222734 -21.760684 10.929452 -4.546574 0.969785 3.270819 -1.317199 -0.006937 0.554460 1.017226 0.130816 0.000000 0.000000 0.000000 3.453533 -2.181407 0.016790 1.922788 1.861407 -3.408178 -6.484597 -1.036245 3.833297 0.000000 0.000000 0.000000 3.563889 -2.467205 0.155969 1.008502 -15.481790 -10.967360 0.598067 -1.110026 -0.538832 -20.709929 0.097847 -38.815815 2.341142 -67.859425 2.128003 0.000000 0.000000 0.000000 2.814217 -2.398317 0.101979 0.028439 11.355523 16.212004 1.875321 3.737927 -1.998569 -10.206613 -7.346080 62.164543 -0.222061 42.198237 1.155095 0.000000 0.000000 0.000000 
4.341341 111.279877 9.622013 0.000000 0.000000 0.000000 -32.277162 -46.081876 -23.572294 0.985302 14.700918 4.181909 28.627416 3.244494 -4.573706 -11.305210 8.975499 8.283855 -4.977230 0.135578 0.159808 0.000000 0.000000 0.000000 -29.175717 -41.519351 -21.016566 12.237434 -10.788699 -4.634006 20.346054 7.165193 -6.305466 -9.879040 -12.892260 7.664675 -4.076318 -0.173425 -0.456099 0.000000 0.000000 0.000000 -31.800814 -43.784907 -23.316307 10.949703 -4.517831 0.829764 3.310790 -1.292706 -0.016528 0.523183 0.960790 0.168341 0.000000 0.000000 0.000000 3.444052 -2.169251 0.018945 2.029119 1.816936 -3.413723 -6.377331 -0.963004 3.643020 0.000000 0.000000 0.000000 3.630514 -2.445666 0.166544 1.055829 -15.587605 -10.925172 0.485839 -1.094757 -0.632551 -20.575433 0.092529 -38.810470 2.363863 -67.910570 2.137229 0.000000 0.000000 0.000000 2.934454 -2.356427 0.110204 0.048104 11.366705 16.223805 1.883344 3.775409 -1.895479 -10.086683 -7.401213 62.195996 -0.187578 42.332683 1.116707 0.000000 0.000000 0.000000 
4.951167 111.148315 10.722553 0.000000 0.000000 0.000000 -33.723827 -47.774878 -25.293823 1.887468 15.017528 4.030998 27.846427 3.243517 -5.376105 -12.141167 10.775356 9.919047 -4.550458 0.147157 0.015860 0.000000 0.000000 0.000000 -30.336965 -43.080551 -22.425097 11.244383 -10.390088 -5.042972 21.072445 6.074979 -6.791840 -8.836510 -13.383807 7.355146 -3.896517 -0.113501 -0.415979 0.000000 0.000000 0.000000 -33.250754 -45.259842 -24.940844 10.927174 -4.448007 0.625760 3.364734 -1.292256 0.002829 0.577877 0.857257 0.281713 0.000000 0.000000 0.000000 3.490143 -2.171557 0.044245 2.088183 1.757612 -3.409515 -6.396345 -0.995871 3.513051 0.000000 0.000000 0.000000 3.737326 -2.447394 0.192693 1.113186 -15.630796 -10.817647 0.389887 -1.108871 -0.767696 -20.565150 0.103300 -38.861710 2.394700 -67.961291 2.183816 0.000000 0.000000 0.000000 3.059711 -2.342621 0.136784 0.049568 11.405051 16.246023 1.933949 3.804858 -1.796185 -9.929247 -7.454492 62.075081 -0.182684 42.615200 1.093684 0.000000 0.000000 0.000000 
5.459677 111.061356 11.674763 0.000000 0.000000 0.000000 -35.263519 -49.129161 -26.996575 2.692619 14.978979 3.627713 27.305057 3.435970 -5.827828 -12.805615 12.445668 10.899208 -4.066436 0.214124 -0.263145 0.000000 0.000000 0.000000 -31.700322 -44.773447 -23.949932 10.304727 -9.749446 -5.159862 22.091311 4.674192 -7.161977 -8.086966 -13.962928 6.825085 -4.107437 -0.051244 -0.209132 0.000000 0.000000 0.000000 -34.802833 -46.711131 -26.608236 10.880807 -4.347254 0.390816 3.410255 -1.313251 0.037376 0.641267 0.743339 0.382416 0.000000 0.000000 0.000000 3.587059 -2.186874 0.084134 2.060365 1.670847 -3.387081 -6.549464 -1.090515 3.455359 0.000000 0.000000 0.000000 3.851946 -2.462110 0.225636 1.163617 -15.614962 -10.689167 0.391875 -1.170075 -0.882353 -20.711177 0.124786 -38.973818 2.440572 -68.040241 2.277845 0.000000 0.000000 0.000000 3.162483 -2.356502 0.172867 0.030483 11.453597 16.310618 2.038564 3.882488 -1.724027 -9.795601 -7.501398 61.840348 -0.219485 42.937028 1.098063 0.000000 0.000000 0.000000 
5.957978 111.005371 12.501724 0.000000 0.000000 0.000000 -36.966582 -50.395526 -28.813317 3.409244 14.865116 3.055142 26.973718 3.847667 -6.012293 -13.272827 13.913258 11.316877 -3.692549 0.311944 -0.567120 0.000000 0.000000 0.000000 -33.386627 -46.605878 -25.715947 9.439762 -8.998895 -4.957915 23.563234 3.151498 -7.365722 -7.771026 -14.416176 6.260014 -4.677935 -0.008101 0.130482 0.000000 0.000000 0.000000 -36.475717 -48.250690 -28.379900 10.832537 -4.233402 0.141613 3.433073 -1.351739 0.068131 0.721546 0.582576 0.412118 0.000000 0.000000 0.000000 3.714253 -2.204597 0.126045 1.950337 1.586669 -3.346822 -6.778708 -1.198217 3.468264 0.000000 0.000000 0.000000 3.942686 -2.480538 0.251218 1.188499 -15.595677 -10.589004 0.510511 -1.238604 -0.916141 -20.974375 0.165174 -39.141922 2.486186 -68.116923 2.395483 0.000000 0.000000 0.000000 3.225789 -2.388419 0.201471 -0.004612 11.504638 16.414823 2.171219 4.035991 -1.677983 -9.713595 -7.550398 61.590678 -0.282797 43.171969 1.130673 0.000000 0.000000 0.000000 
6.423865 110.965164 13.159973 0.000000 0.000000 0.000000 -38.931641 -51.796043 -30.879780 4.081797 15.036665 2.500397 26.933871 4.381654 -6.117625 -13.584439 15.009278 11.290018 -3.512048 0.395659 -0.766666 0.000000 0.000000 0.000000 -35.417843 -48.601485 -27.801976 8.753060 -8.334380 -4.531059 25.576811 1.587538 -7.333657 -8.118482 -14.700384 5.525838 -5.214840 0.006181 0.570133 0.000000 0.000000 0.000000 -38.298278 -49.840314 -30.301827 10.821300 -4.111249 -0.080622 3.429663 -1.386934 0.074555 0.768947 0.389418 0.390944 0.000000 0.000000 0.000000 3.841798 -2.214146 0.154876 1.804494 1.495900 -3.314158 -7.002739 -1.267783 3.523167 0.000000 0.000000 0.000000 3.984881 -2.491582 0.251452 1.182965 -15.598800 -10.542506 0.687628 -1.295968 -0.844199 -21.282934 0.204481 -39.354379 2.507704 -68.153335 2.492496 0.000000 0.000000 0.000000 3.251937 -2.415649 0.204880 -0.043994 11.560627 16.536673 2.306536 4.219622 -1.652834 -9.685948 -7.567511 61.424137 -0.348579 43.229893 1.177927 0.000000 0.000000 0.000000 
6.925444 110.896248 13.650909 0.000000 0.000000 0.000000 -41.499092 -53.550230 -33.513898 4.660780 15.568496 2.091906 27.305708 4.963414 -6.257116 -13.827322 15.746277 10.912058 -3.482769 0.448884 -0.800194 0.000000 0.000000 0.000000 -37.875865 -50.742534 -30.298203 8.311176 -7.991986 -4.078636 28.056112 0.029554 -7.003007 -9.069050 -14.960879 4.569252 -5.477738 -0.005050 1.031698 0.000000 0.000000 0.000000 -40.397369 -51.544760 -32.552770 10.857739 -3.982660 -0.264943 3.401250 -1.402139 0.054358 0.772740 0.230698 0.299819 0.000000 0.000000 0.000000 3.939673 -2.211851 0.158249 1.684339 1.415965 -3.307666 -7.131223 -1.272246 3.610132 0.000000 0.000000 0.000000 3.976067 -2.484922 0.224609 1.151048 -15.613896 -10.565243 0.852585 -1.326120 -0.690081 -21.556494 0.226621 -39.562457 2.493223 -68.118966 2.540800 0.000000 0.000000 0.000000 3.255552 -2.426613 0.176525 -0.082367 11.606692 16.639184 2.461514 4.396116 -1.662077 -9.727408 -7.555157 61.408715 -0.388182 43.153022 1.222659 0.000000 0.000000 0.000000 
7.457395 110.721939 14.042046 0.000000 0.000000 0.000000 -44.835056 -55.643775 -36.878210 5.063503 16.262103 1.920683 28.129330 5.482762 -6.499665 -14.202416 16.282102 10.386035 -3.412118 0.466331 -0.688424 0.000000 0.000000 0.000000 -40.861853 -53.030948 -33.350577 8.128497 -8.140470 -3.826070 30.724260 -1.555344 -6.361207 -10.124349 -15.436098 3.772909 -5.852688 -0.057758 1.402227 0.000000 0.000000 0.000000 -42.824234 -53.342268 -35.174675 10.903516 -3.852480 -0.415496 3.366324 -1.397769 0.016663 0.747155 0.106070 0.208319 0.000000 0.000000 0.000000 3.992422 -2.201850 0.141408 1.641185 1.372361 -3.341119 -7.118964 -1.216476 3.695899 0.000000 0.000000 0.000000 3.938124 -2.470367 0.178493 1.104492 -15.636929 -10.643432 0.914403 -1.255334 -0.508118 -21.725843 0.243340 -39.706222 2.452493 -68.049216 2.536096 0.000000 0.000000 0.000000 3.246562 -2.423945 0.126194 -0.117342 11.636845 16.681945 2.622302 4.510403 -1.675338 -9.813647 -7.540556 61.537921 -0.384242 42.994538 1.255652 0.000000 0.000000 0.000000 
7.922726 110.545509 14.374222 0.000000 0.000000 0.000000 -48.851063 -57.821315 -40.929096 5.337419 16.962232 1.988082 29.221438 6.060845 -6.827898 -14.928693 16.856852 9.970010 -3.176150 0.463137 -0.503259 0.000000 0.000000 0.000000 -44.277220 -55.419028 -36.911783 8.368586 -8.835410 -3.892400 33.086778 -3.166721 -5.470029 -10.818548 -16.379325 3.424277 -6.596618 -0.139324 1.562962 0.000000 0.000000 0.000000 -45.683027 -55.214594 -38.257498 10.931009 -3.744731 -0.523614 3.351223 -1.373072 -0.021103 0.628986 0.120894 0.203333 0.000000 0.000000 0.000000 3.999209 -2.193681 0.110146 1.698587 1.368548 -3.424265 -6.960683 -1.113721 3.744034 0.000000 0.000000 0.000000 3.908477 -2.453265 0.124989 1.062129 -15.624613 -10.763191 0.829016 -1.116722 -0.337620 -21.762617 0.222926 -39.742036 2.426158 -67.998167 2.516959 0.000000 0.000000 0.000000 3.244985 -2.409068 0.071448 -0.146080 11.649110 16.651673 2.775587 4.521309 -1.691875 -9.946365 -7.563466 61.742520 -0.343879 42.840435 1.281255 0.000000 0.000000 0.000000 
